# Hierarchical Translation and Rotation (.htr) file
# Generated by EVaRT
[Header]
FileType htr
DataType HTRS
FileVersion 1
NumSegments 23
NumFrames 5
DataFrameRate 120
EulerRotationOrder ZYX
CalibrationUnits mm
RotationUnits Degrees
GlobalAxisofGravity Y
BoneLengthAxis Y
ScaleFactor 1
[SegmentNames&Hierarchy]
#CHILD            PARENT
DaveRoot          GLOBAL
Spine1            DaveRoot
Spine2            Spine1
Spine3            Spine2
Spine4            Spine3
Neck              Spine4
Head              Neck
LClavicle         Spine4
LUpperArm         LClavicle
LLowerArm         LUpperArm
LHand             LLowerArm
RClavicle         Spine4
RUpperArm         RClavicle
RLowerArm         RUpperArm
RHand             RLowerArm
RUpperLeg         DaveRoot
RLowerLeg         RUpperLeg
RFoot             RLowerLeg
RToes             RFoot
LUpperLeg         DaveRoot
LLowerLeg         LUpperLeg
LFoot             LLowerLeg
LToes             LFoot
[BasePosition]
#SegmentName      Tx   Ty   Tz   Rx   Ry   Rz   BoneLength
DaveRoot          30.502683	1014.050144	-392.030244	16.346492	-1.112010	-1.464339	100.000000
Spine1            0.000000	100.000000	0.000000	-16.708095	0.289044	-0.213389	100.000000
Spine2            0.000000	100.000000	0.000000	4.757952	0.249599	-0.116624	100.000000
Spine3            0.000000	100.000000	0.000000	11.084253	0.260929	-0.088411	100.000000
Spine4            0.000000	100.000000	0.000000	12.228282	1.332274	1.443083	100.000000
Neck              0.000000	100.000000	0.000000	10.147668	18.171820	1.381874	80.000000
Head              0.000000	80.000000	0.000000	-46.518491	-1.401195	-5.185409	200.000000
LClavicle         0.000000	100.000000	0.000000	-3.689620	-1.992124	-101.831237	200.000000
LUpperArm         0.000000	200.000000	0.000000	-0.284445	-3.207106	1.762499	300.000000
LLowerArm         0.000000	300.000000	0.000000	9.834184	2.175812	1.895763	200.000000
LHand             0.000000	200.000000	0.000000	-2.090742	-1.768569	8.793625	120.000000
RClavicle         0.000000	100.000000	0.000000	-0.558465	-3.870894	107.984856	200.000000
RUpperArm         0.000000	200.000000	0.000000	6.860362	-6.098052	-15.811317	300.000000
RLowerArm         0.000000	300.000000	0.000000	5.698581	-3.682026	-7.348670	200.000000
RHand             0.000000	200.000000	0.000000	-4.626921	6.468423	-3.971303	120.000000
RUpperLeg         -115.911102	-10.000000	31.058285	22.974686	25.481186	-170.503396	530.000000
RLowerLeg         0.000000	530.000000	0.000000	-7.725558	0.479387	-2.520024	460.000000
RFoot             0.000000	460.000000	0.000000	81.786251	-5.006629	-0.462861	130.000000
RToes             0.000000	130.000000	0.000000	20.181248	0.005479	-0.002881	100.000000
LUpperLeg         115.911102	-10.000000	31.058285	21.582405	10.065134	-177.228489	530.000000
LLowerLeg         0.000000	530.000000	0.000000	-4.243927	-3.275937	3.046484	460.000000
LFoot             0.000000	460.000000	0.000000	77.706358	-14.203819	16.055021	130.000000
LToes             0.000000	130.000000	0.000000	27.168776	-0.000000	-0.000086	100.000000
#Beginning of Data.
[DaveRoot]
#Fr	Tx	Ty	Tz	Rx	Ry	Rz	SF
1336	52.780986	-14.153365	77.649293	-10.528528	38.234933	-11.511702	1.000000	
1337	50.276172	-13.769712	77.853342	-10.116980	37.063920	-11.040097	1.000000	
1338	47.894846	-13.673969	78.135217	-10.222182	36.254660	-10.817883	1.000000	
1339	45.737845	-13.289278	78.367447	-9.899032	35.517646	-10.661636	1.000000	
1340	42.912427	-12.892348	78.604727	-9.714183	34.685457	-10.468076	1.000000	
[Spine1]
#Fr	Tx	Ty	Tz	Rx	Ry	Rz	SF
1336	0.000000	0.000000	0.000000	0.479008	0.990624	-2.150969	1.000000	
1337	0.000000	0.000000	0.000000	0.298795	1.083835	-2.092956	1.000000	
1338	0.000000	0.000000	0.000000	0.726609	0.923201	-2.025216	1.000000	
1339	0.000000	0.000000	0.000000	0.429874	0.997405	-1.958368	1.000000	
1340	0.000000	0.000000	0.000000	0.490021	0.939314	-1.888484	1.000000	
[Spine2]
#Fr	Tx	Ty	Tz	Rx	Ry	Rz	SF
1336	0.000000	0.000000	0.000000	0.479008	0.990624	-2.150969	1.000000	
1337	0.000000	0.000000	0.000000	0.298795	1.083835	-2.092956	1.000000	
1338	0.000000	0.000000	0.000000	0.726609	0.923201	-2.025216	1.000000	
1339	0.000000	0.000000	0.000000	0.429874	0.997405	-1.958368	1.000000	
1340	0.000000	0.000000	0.000000	0.490021	0.939314	-1.888484	1.000000	
[Spine3]
#Fr	Tx	Ty	Tz	Rx	Ry	Rz	SF
1336	0.000000	0.000000	0.000000	0.479008	0.990624	-2.150969	1.000000	
1337	0.000000	0.000000	0.000000	0.298795	1.083835	-2.092956	1.000000	
1338	0.000000	0.000000	0.000000	0.726609	0.923201	-2.025216	1.000000	
1339	0.000000	0.000000	0.000000	0.429874	0.997405	-1.958368	1.000000	
1340	0.000000	0.000000	0.000000	0.490021	0.939314	-1.888484	1.000000	
[Spine4]
#Fr	Tx	Ty	Tz	Rx	Ry	Rz	SF
1336	0.000000	0.000000	0.000000	0.479008	0.990624	-2.150969	1.000000	
1337	0.000000	0.000000	0.000000	0.298795	1.083835	-2.092956	1.000000	
1338	0.000000	0.000000	0.000000	0.726609	0.923201	-2.025216	1.000000	
1339	0.000000	0.000000	0.000000	0.429874	0.997405	-1.958368	1.000000	
1340	0.000000	0.000000	0.000000	0.490021	0.939314	-1.888484	1.000000	
[Neck]
#Fr	Tx	Ty	Tz	Rx	Ry	Rz	SF
1336	0.000000	0.000000	0.000000	2.806003	-21.899618	8.063552	1.000000	
1337	0.000000	0.000000	0.000000	3.402842	-21.822486	7.936348	1.000000	
1338	0.000000	0.000000	0.000000	1.746968	-21.076678	7.823952	1.000000	
1339	0.000000	0.000000	0.000000	2.835343	-21.152631	7.719664	1.000000	
1340	0.000000	0.000000	0.000000	2.454713	-20.723932	7.633884	1.000000	
[Head]
#Fr	Tx	Ty	Tz	Rx	Ry	Rz	SF
1336	0.000000	0.000000	0.000000	2.806003	-21.899618	8.063552	1.000000	
1337	0.000000	0.000000	0.000000	3.402842	-21.822486	7.936348	1.000000	
1338	0.000000	0.000000	0.000000	1.746968	-21.076678	7.823952	1.000000	
1339	0.000000	0.000000	0.000000	2.835343	-21.152631	7.719664	1.000000	
1340	0.000000	0.000000	0.000000	2.454713	-20.723932	7.633884	1.000000	
[LClavicle]
#Fr	Tx	Ty	Tz	Rx	Ry	Rz	SF
1336	0.000000	0.000000	0.000000	13.346512	1.649843	-9.548821	1.000000	
1337	0.000000	0.000000	0.000000	15.666325	2.101336	-10.078226	1.000000	
1338	0.000000	0.000000	0.000000	11.243224	1.476101	-10.012997	1.000000	
1339	0.000000	0.000000	0.000000	14.281723	1.939581	-10.203071	1.000000	
1340	0.000000	0.000000	0.000000	13.650347	1.915459	-10.466037	1.000000	
[LUpperArm]
#Fr	Tx	Ty	Tz	Rx	Ry	Rz	SF
1336	0.000000	0.000000	0.000000	27.498467	44.276871	-32.566771	1.000000	
1337	0.000000	0.000000	0.000000	20.511729	41.394841	-35.997075	1.000000	
1338	0.000000	0.000000	0.000000	35.089518	46.957429	-27.117357	1.000000	
1339	0.000000	0.000000	0.000000	24.369902	42.303947	-33.767248	1.000000	
1340	0.000000	0.000000	0.000000	26.911699	43.360428	-31.841899	1.000000	
[LLowerArm]
#Fr	Tx	Ty	Tz	Rx	Ry	Rz	SF
1336	0.000000	0.000000	0.000000	2.575475	0.000000	0.000000	1.000000	
1337	0.000000	0.000000	0.000000	8.941172	0.000000	0.000000	1.000000	
1338	0.000000	0.000000	0.000000	-3.571260	0.000000	0.000000	1.000000	
1339	0.000000	0.000000	0.000000	5.729294	0.000000	0.000000	1.000000	
1340	0.000000	0.000000	0.000000	3.320131	0.000000	0.000000	1.000000	
[LHand]
#Fr	Tx	Ty	Tz	Rx	Ry	Rz	SF
1336	0.000000	0.000000	0.000000	14.868608	-0.000000	-0.000000	1.000000	
1337	0.000000	0.000000	0.000000	10.510008	-0.000000	-0.000000	1.000000	
1338	0.000000	0.000000	0.000000	19.360510	-0.000000	-0.000000	1.000000	
1339	0.000000	0.000000	0.000000	12.987646	-0.000000	-0.000000	1.000000	
1340	0.000000	0.000000	0.000000	14.729611	-0.000000	-0.000000	1.000000	
[RClavicle]
#Fr	Tx	Ty	Tz	Rx	Ry	Rz	SF
1336	0.000000	0.000000	0.000000	5.832444	-1.165937	11.079830	1.000000	
1337	0.000000	0.000000	0.000000	6.404070	-1.245648	10.775432	1.000000	
1338	0.000000	0.000000	0.000000	5.516329	-1.071733	10.774815	1.000000	
1339	0.000000	0.000000	0.000000	6.381891	-1.194597	10.372544	1.000000	
1340	0.000000	0.000000	0.000000	6.106962	-1.135343	10.305850	1.000000	
[RUpperArm]
#Fr	Tx	Ty	Tz	Rx	Ry	Rz	SF
1336	0.000000	0.000000	0.000000	36.067417	-26.116332	35.571266	1.000000	
1337	0.000000	0.000000	0.000000	34.639142	-25.643013	36.979523	1.000000	
1338	0.000000	0.000000	0.000000	38.349702	-26.490591	33.693640	1.000000	
1339	0.000000	0.000000	0.000000	35.931753	-25.887661	36.057861	1.000000	
1340	0.000000	0.000000	0.000000	36.943953	-26.075129	35.232259	1.000000	
[RLowerArm]
#Fr	Tx	Ty	Tz	Rx	Ry	Rz	SF
1336	0.000000	0.000000	0.000000	15.785449	0.000000	0.000000	1.000000	
1337	0.000000	0.000000	0.000000	16.678136	0.000000	0.000000	1.000000	
1338	0.000000	0.000000	0.000000	15.342688	0.000000	0.000000	1.000000	
1339	0.000000	0.000000	0.000000	16.533089	0.000000	0.000000	1.000000	
1340	0.000000	0.000000	0.000000	16.349875	0.000000	0.000000	1.000000	
[RHand]
#Fr	Tx	Ty	Tz	Rx	Ry	Rz	SF
1336	0.000000	0.000000	0.000000	8.951194	-12.232655	0.249804	1.000000	
1337	0.000000	0.000000	0.000000	8.542892	-12.888454	-0.057206	1.000000	
1338	0.000000	0.000000	0.000000	9.908444	-12.150792	-0.215894	1.000000	
1339	0.000000	0.000000	0.000000	9.168565	-12.930359	-0.329259	1.000000	
1340	0.000000	0.000000	0.000000	9.606044	-13.100954	-0.540113	1.000000	
[RUpperLeg]
#Fr	Tx	Ty	Tz	Rx	Ry	Rz	SF
1336	0.000000	0.000000	0.000000	-1.858573	2.814401	-5.686379	1.000000	
1337	0.000000	0.000000	0.000000	-1.863723	1.599673	-5.098940	1.000000	
1338	0.000000	0.000000	0.000000	-2.203320	0.709095	-4.730382	1.000000	
1339	0.000000	0.000000	0.000000	-2.092502	-0.057699	-4.163592	1.000000	
1340	0.000000	0.000000	0.000000	-2.086742	-0.872965	-3.615618	1.000000	
[RLowerLeg]
#Fr	Tx	Ty	Tz	Rx	Ry	Rz	SF
1336	0.000000	0.000000	0.000000	-17.579765	-0.000000	0.000000	1.000000	
1337	0.000000	0.000000	0.000000	-17.070236	0.000000	0.000000	1.000000	
1338	0.000000	0.000000	0.000000	-16.731560	0.000000	0.000000	1.000000	
1339	0.000000	0.000000	0.000000	-16.496124	-0.000000	0.000000	1.000000	
1340	0.000000	0.000000	0.000000	-16.300974	-0.000000	0.000000	1.000000	
[RFoot]
#Fr	Tx	Ty	Tz	Rx	Ry	Rz	SF
1336	0.000000	0.000000	0.000000	9.569179	11.069882	-29.213874	1.000000	
1337	0.000000	0.000000	0.000000	9.703011	10.840654	-29.266564	1.000000	
1338	0.000000	0.000000	0.000000	9.692415	10.592936	-29.462354	1.000000	
1339	0.000000	0.000000	0.000000	9.551421	10.279012	-29.719042	1.000000	
1340	0.000000	0.000000	0.000000	9.380349	9.935717	-29.931607	1.000000	
[RToes]
#Fr	Tx	Ty	Tz	Rx	Ry	Rz	SF
1336	0.000000	0.000000	0.000000	-0.968954	-0.000000	0.000000	1.000000	
1337	0.000000	0.000000	0.000000	-1.337568	0.000000	0.000000	1.000000	
1338	0.000000	0.000000	0.000000	-1.508984	-0.000000	0.000000	1.000000	
1339	0.000000	0.000000	0.000000	-1.492229	-0.000000	0.000000	1.000000	
1340	0.000000	0.000000	0.000000	-1.440357	-0.000000	0.000000	1.000000	
[LUpperLeg]
#Fr	Tx	Ty	Tz	Rx	Ry	Rz	SF
1336	0.000000	0.000000	0.000000	-2.352194	-6.201415	0.236137	1.000000	
1337	0.000000	0.000000	0.000000	-2.356933	-6.129613	0.540837	1.000000	
1338	0.000000	0.000000	0.000000	-2.635093	-6.025044	0.836505	1.000000	
1339	0.000000	0.000000	0.000000	-2.431734	-5.948509	1.165984	1.000000	
1340	0.000000	0.000000	0.000000	-2.390331	-5.644888	1.502225	1.000000	
[LLowerLeg]
#Fr	Tx	Ty	Tz	Rx	Ry	Rz	SF
1336	0.000000	0.000000	0.000000	-4.997710	-0.000000	-0.000000	1.000000	
1337	0.000000	0.000000	0.000000	-5.006002	-0.000000	-0.000000	1.000000	
1338	0.000000	0.000000	0.000000	-5.139208	-0.000000	-0.000000	1.000000	
1339	0.000000	0.000000	0.000000	-5.308169	-0.000000	-0.000000	1.000000	
1340	0.000000	0.000000	0.000000	-5.466800	-0.000000	-0.000000	1.000000	
[LFoot]
#Fr	Tx	Ty	Tz	Rx	Ry	Rz	SF
1336	0.000000	0.000000	0.000000	-5.320305	2.265434	21.567347	1.000000	
1337	0.000000	0.000000	0.000000	-5.805190	2.147460	22.564371	1.000000	
1338	0.000000	0.000000	0.000000	-6.138309	2.134245	23.260975	1.000000	
1339	0.000000	0.000000	0.000000	-6.410743	2.034471	23.875013	1.000000	
1340	0.000000	0.000000	0.000000	-6.830942	1.906618	24.791738	1.000000	
[LToes]
#Fr	Tx	Ty	Tz	Rx	Ry	Rz	SF
1336	0.000000	0.000000	0.000000	1.585737	0.000000	-0.000000	1.000000	
1337	0.000000	0.000000	0.000000	1.785881	0.000000	-0.000000	1.000000	
1338	0.000000	0.000000	0.000000	2.008667	0.000000	-0.000000	1.000000	
1339	0.000000	0.000000	0.000000	2.088751	0.000000	-0.000000	1.000000	
1340	0.000000	0.000000	0.000000	2.141444	0.000000	-0.000000	1.000000	
